# xmcd
#
# Track frame offsets:
#	150
#	16132
#	28744
#	46395
#	63437
#	79907
#	96386
#	110276
#	128860
#	150085
#
# Disc length: 2201 seconds
# Revision: 0
# Processed by: cddbd v1.5.2PL0 Copyright (c) Steve Scherf et al.
# Submitted via: dBpowerAMP V12.0
#
DISCID=7408970a
DTITLE=Marc Clement - Crooked Journey
DYEAR=2015
DGENRE=Country/Roots
TTITLE0=Crooked Journey
TTITLE1=Information Superhighway Love Song
TTITLE2=With Apologies
TTITLE3=Autumn
TTITLE4=Way On Down the Highway (feat. Swifty)
TTITLE5=Rig Rags to Riches
TTITLE6=All Killer, No Filler
TTITLE7=Children and Trees
TTITLE8=Something I Cannot See
TTITLE9=Spring
EXTD=
EXTT0=
EXTT1=
EXTT2=
EXTT3=
EXTT4=
EXTT5=
EXTT6=
EXTT7=
EXTT8=
EXTT9=
PLAYORDER=
